<svg xmlns="http://www.w3.org/2000/svg" xmlns:xlink="http://www.w3.org/1999/xlink" width="250" height="250" viewBox="0 0 250 250"><defs><style>.a{fill:url(#a);}</style><linearGradient id="a" x1="34.56" y1="215.44" x2="211.76" y2="38.24" gradientUnits="userSpaceOnUse"><stop offset="0" stop-color="#54e3a6"/><stop offset="1" stop-color="#4357c5"/></linearGradient></defs><path class="a" d="M250,125A125,125,0,1,1,125,0,125,125,0,0,1,250,125ZM56.5,162.43A7.82,7.82,0,0,0,55,165a8.32,8.32,0,0,0-.35,2.44,7.61,7.61,0,0,0,7.68,7.68,8.45,8.45,0,0,0,3.21-.69,6.93,6.93,0,0,0,2.79-2.1l57.26-68.43v63a8,8,0,0,0,2.37,5.8,7.85,7.85,0,0,0,5.87,2.44,7.68,7.68,0,0,0,5.72-2.44,8,8,0,0,0,2.38-5.8V148l37-44.13v63a7.94,7.94,0,0,0,2.43,5.8,8,8,0,0,0,11.49,0,8,8,0,0,0,2.42-5.8V83.11a7.85,7.85,0,0,0-2.44-5.87,8,8,0,0,0-5.78-2.37,8.57,8.57,0,0,0-3.42.69,8.92,8.92,0,0,0-3.13,2.52l-38.61,46.08,0-41a8,8,0,0,0-2.38-5.87,7.8,7.8,0,0,0-5.72-2.37,8.9,8.9,0,0,0-3.56.69,9.05,9.05,0,0,0-3.15,2.52Z"/></svg>